<mxfile host="app.diagrams.net" agent="Mozilla/5.0 (Windows NT 10.0; Win64; x64) AppleWebKit/537.36 (KHTML, like Gecko) Chrome/131.0.0.0 Safari/537.36" version="25.0.1">
  <diagram name="第 1 页" id="Fi3cCJ9vPesf7RRROII6">
    <mxGraphModel dx="1434" dy="746" grid="1" gridSize="10" guides="1" tooltips="1" connect="1" arrows="1" fold="1" page="1" pageScale="1" pageWidth="827" pageHeight="1169" math="0" shadow="0">
      <root>
        <mxCell id="0" />
        <mxCell id="1" parent="0" />
        <mxCell id="id077lcBNHBf9qb926Jy-10" style="edgeStyle=orthogonalEdgeStyle;rounded=0;orthogonalLoop=1;jettySize=auto;html=1;strokeColor=#ed2a07;" edge="1" parent="1" source="id077lcBNHBf9qb926Jy-1">
          <mxGeometry relative="1" as="geometry">
            <mxPoint x="270" y="467.5" as="targetPoint" />
          </mxGeometry>
        </mxCell>
        <mxCell id="id077lcBNHBf9qb926Jy-1" value="" style="fontColor=#0066CC;verticalAlign=top;verticalLabelPosition=bottom;labelPosition=center;align=center;html=1;outlineConnect=0;fillColor=#CCCCCC;strokeColor=#6881B3;gradientColor=none;gradientDirection=north;strokeWidth=2;shape=mxgraph.networks.laptop;" vertex="1" parent="1">
          <mxGeometry x="100" y="440" width="100" height="55" as="geometry" />
        </mxCell>
        <mxCell id="id077lcBNHBf9qb926Jy-2" value="客户端" style="text;html=1;align=center;verticalAlign=middle;resizable=0;points=[];autosize=1;strokeColor=none;fillColor=none;fontSize=16;" vertex="1" parent="1">
          <mxGeometry x="115" y="498" width="70" height="30" as="geometry" />
        </mxCell>
        <mxCell id="id077lcBNHBf9qb926Jy-24" style="edgeStyle=orthogonalEdgeStyle;rounded=1;orthogonalLoop=1;jettySize=auto;html=1;curved=0;strokeColor=#f20707;" edge="1" parent="1" source="id077lcBNHBf9qb926Jy-3" target="id077lcBNHBf9qb926Jy-6">
          <mxGeometry relative="1" as="geometry" />
        </mxCell>
        <mxCell id="id077lcBNHBf9qb926Jy-3" value="" style="fontColor=#0066CC;verticalAlign=top;verticalLabelPosition=bottom;labelPosition=center;align=center;html=1;outlineConnect=0;fillColor=#CCCCCC;strokeColor=#6881B3;gradientColor=none;gradientDirection=north;strokeWidth=2;shape=mxgraph.networks.desktop_pc;" vertex="1" parent="1">
          <mxGeometry x="280" y="330" width="30" height="60" as="geometry" />
        </mxCell>
        <mxCell id="id077lcBNHBf9qb926Jy-21" style="edgeStyle=orthogonalEdgeStyle;rounded=1;orthogonalLoop=1;jettySize=auto;html=1;curved=0;strokeColor=#fb0404;" edge="1" parent="1" source="id077lcBNHBf9qb926Jy-4" target="id077lcBNHBf9qb926Jy-7">
          <mxGeometry relative="1" as="geometry" />
        </mxCell>
        <mxCell id="id077lcBNHBf9qb926Jy-22" style="edgeStyle=orthogonalEdgeStyle;rounded=1;orthogonalLoop=1;jettySize=auto;html=1;curved=0;strokeColor=#f11809;" edge="1" parent="1" source="id077lcBNHBf9qb926Jy-4" target="id077lcBNHBf9qb926Jy-8">
          <mxGeometry relative="1" as="geometry" />
        </mxCell>
        <mxCell id="id077lcBNHBf9qb926Jy-4" value="" style="fontColor=#0066CC;verticalAlign=top;verticalLabelPosition=bottom;labelPosition=center;align=center;html=1;outlineConnect=0;fillColor=#CCCCCC;strokeColor=#6881B3;gradientColor=none;gradientDirection=north;strokeWidth=2;shape=mxgraph.networks.desktop_pc;" vertex="1" parent="1">
          <mxGeometry x="280" y="550" width="30" height="60" as="geometry" />
        </mxCell>
        <mxCell id="id077lcBNHBf9qb926Jy-5" value="Ngnix1" style="html=1;outlineConnect=0;fillColor=#CCCCCC;strokeColor=#6881B3;gradientColor=none;gradientDirection=north;strokeWidth=2;shape=mxgraph.networks.cloud;fontColor=#ffffff;fontSize=16;" vertex="1" parent="1">
          <mxGeometry x="420" y="260" width="90" height="50" as="geometry" />
        </mxCell>
        <mxCell id="id077lcBNHBf9qb926Jy-6" value="Ngnix2" style="html=1;outlineConnect=0;fillColor=#CCCCCC;strokeColor=#6881B3;gradientColor=none;gradientDirection=north;strokeWidth=2;shape=mxgraph.networks.cloud;fontColor=#ffffff;fontSize=16;" vertex="1" parent="1">
          <mxGeometry x="420" y="360" width="90" height="50" as="geometry" />
        </mxCell>
        <mxCell id="id077lcBNHBf9qb926Jy-7" value="Ngnix3" style="html=1;outlineConnect=0;fillColor=#CCCCCC;strokeColor=#6881B3;gradientColor=none;gradientDirection=north;strokeWidth=2;shape=mxgraph.networks.cloud;fontColor=#ffffff;fontSize=16;" vertex="1" parent="1">
          <mxGeometry x="430" y="500" width="90" height="50" as="geometry" />
        </mxCell>
        <mxCell id="id077lcBNHBf9qb926Jy-8" value="Ngnix4" style="html=1;outlineConnect=0;fillColor=#CCCCCC;strokeColor=#6881B3;gradientColor=none;gradientDirection=north;strokeWidth=2;shape=mxgraph.networks.cloud;fontColor=#ffffff;fontSize=16;" vertex="1" parent="1">
          <mxGeometry x="430" y="610" width="90" height="50" as="geometry" />
        </mxCell>
        <mxCell id="id077lcBNHBf9qb926Jy-9" value="" style="fontColor=#0066CC;verticalAlign=top;verticalLabelPosition=bottom;labelPosition=center;align=center;html=1;outlineConnect=0;fillColor=#CCCCCC;strokeColor=#6881B3;gradientColor=none;gradientDirection=north;strokeWidth=2;shape=mxgraph.networks.comm_link;" vertex="1" parent="1">
          <mxGeometry x="280" y="420" width="30" height="100" as="geometry" />
        </mxCell>
        <mxCell id="id077lcBNHBf9qb926Jy-11" value="VIP" style="text;html=1;align=center;verticalAlign=middle;resizable=0;points=[];autosize=1;strokeColor=none;fillColor=none;" vertex="1" parent="1">
          <mxGeometry x="210" y="450" width="40" height="30" as="geometry" />
        </mxCell>
        <mxCell id="id077lcBNHBf9qb926Jy-12" value="" style="fontColor=#0066CC;verticalAlign=top;verticalLabelPosition=bottom;labelPosition=center;align=center;html=1;outlineConnect=0;fillColor=#CCCCCC;strokeColor=#6881B3;gradientColor=none;gradientDirection=north;strokeWidth=2;shape=mxgraph.networks.desktop_pc;" vertex="1" parent="1">
          <mxGeometry x="670" y="350" width="30" height="60" as="geometry" />
        </mxCell>
        <mxCell id="id077lcBNHBf9qb926Jy-13" value="" style="fontColor=#0066CC;verticalAlign=top;verticalLabelPosition=bottom;labelPosition=center;align=center;html=1;outlineConnect=0;fillColor=#CCCCCC;strokeColor=#6881B3;gradientColor=none;gradientDirection=north;strokeWidth=2;shape=mxgraph.networks.desktop_pc;" vertex="1" parent="1">
          <mxGeometry x="670" y="490" width="30" height="60" as="geometry" />
        </mxCell>
        <mxCell id="id077lcBNHBf9qb926Jy-14" value="" style="fontColor=#0066CC;verticalAlign=top;verticalLabelPosition=bottom;labelPosition=center;align=center;html=1;outlineConnect=0;fillColor=#CCCCCC;strokeColor=#6881B3;gradientColor=none;gradientDirection=north;strokeWidth=2;shape=mxgraph.networks.desktop_pc;" vertex="1" parent="1">
          <mxGeometry x="670" y="585" width="30" height="60" as="geometry" />
        </mxCell>
        <mxCell id="id077lcBNHBf9qb926Jy-15" value="realServer1" style="text;html=1;align=center;verticalAlign=middle;resizable=0;points=[];autosize=1;strokeColor=none;fillColor=none;fontSize=14;" vertex="1" parent="1">
          <mxGeometry x="500" y="238" width="100" height="30" as="geometry" />
        </mxCell>
        <mxCell id="id077lcBNHBf9qb926Jy-16" value="realServer2" style="text;html=1;align=center;verticalAlign=middle;resizable=0;points=[];autosize=1;strokeColor=none;fillColor=none;fontSize=14;" vertex="1" parent="1">
          <mxGeometry x="500" y="340" width="100" height="30" as="geometry" />
        </mxCell>
        <mxCell id="id077lcBNHBf9qb926Jy-17" value="realServer1" style="text;html=1;align=center;verticalAlign=middle;resizable=0;points=[];autosize=1;strokeColor=none;fillColor=none;fontSize=14;" vertex="1" parent="1">
          <mxGeometry x="500" y="238" width="100" height="30" as="geometry" />
        </mxCell>
        <mxCell id="id077lcBNHBf9qb926Jy-18" value="realServer3" style="text;html=1;align=center;verticalAlign=middle;resizable=0;points=[];autosize=1;strokeColor=none;fillColor=none;fontSize=14;" vertex="1" parent="1">
          <mxGeometry x="500" y="570" width="100" height="30" as="geometry" />
        </mxCell>
        <mxCell id="id077lcBNHBf9qb926Jy-19" value="master&amp;nbsp; LVS+Keepalived" style="text;html=1;align=center;verticalAlign=middle;resizable=0;points=[];autosize=1;strokeColor=none;fillColor=none;fontSize=14;" vertex="1" parent="1">
          <mxGeometry x="170" y="288" width="180" height="30" as="geometry" />
        </mxCell>
        <mxCell id="id077lcBNHBf9qb926Jy-20" value="backup&amp;nbsp; LVS+Keepalived" style="text;html=1;align=center;verticalAlign=middle;resizable=0;points=[];autosize=1;strokeColor=none;fillColor=none;fontSize=14;" vertex="1" parent="1">
          <mxGeometry x="180" y="640" width="180" height="30" as="geometry" />
        </mxCell>
        <mxCell id="id077lcBNHBf9qb926Jy-23" style="edgeStyle=orthogonalEdgeStyle;rounded=1;orthogonalLoop=1;jettySize=auto;html=1;entryX=0.06;entryY=0.5;entryDx=0;entryDy=0;entryPerimeter=0;curved=0;strokeColor=#f40606;" edge="1" parent="1">
          <mxGeometry relative="1" as="geometry">
            <mxPoint x="315" y="360" as="sourcePoint" />
            <mxPoint x="430.4000000000001" y="285" as="targetPoint" />
            <Array as="points">
              <mxPoint x="365" y="360" />
              <mxPoint x="365" y="285" />
            </Array>
          </mxGeometry>
        </mxCell>
        <mxCell id="id077lcBNHBf9qb926Jy-28" value="" style="endArrow=classic;html=1;rounded=0;strokeColor=#ef0b0b;" edge="1" parent="1">
          <mxGeometry width="50" height="50" relative="1" as="geometry">
            <mxPoint x="530" y="380" as="sourcePoint" />
            <mxPoint x="660" y="380" as="targetPoint" />
          </mxGeometry>
        </mxCell>
        <mxCell id="id077lcBNHBf9qb926Jy-29" value="" style="endArrow=classic;html=1;rounded=0;strokeColor=#f00f0f;" edge="1" parent="1">
          <mxGeometry width="50" height="50" relative="1" as="geometry">
            <mxPoint x="530" y="400" as="sourcePoint" />
            <mxPoint x="650" y="500" as="targetPoint" />
          </mxGeometry>
        </mxCell>
        <mxCell id="id077lcBNHBf9qb926Jy-30" value="" style="endArrow=classic;html=1;rounded=0;strokeColor=#f40b0b;" edge="1" parent="1">
          <mxGeometry width="50" height="50" relative="1" as="geometry">
            <mxPoint x="530" y="420" as="sourcePoint" />
            <mxPoint x="660" y="620" as="targetPoint" />
          </mxGeometry>
        </mxCell>
        <mxCell id="id077lcBNHBf9qb926Jy-31" value="" style="endArrow=classic;html=1;rounded=0;strokeColor=#6ed605;" edge="1" parent="1">
          <mxGeometry width="50" height="50" relative="1" as="geometry">
            <mxPoint x="530" y="530" as="sourcePoint" />
            <mxPoint x="660" y="410" as="targetPoint" />
          </mxGeometry>
        </mxCell>
        <mxCell id="id077lcBNHBf9qb926Jy-32" value="" style="endArrow=classic;html=1;rounded=0;strokeColor=#21f505;" edge="1" parent="1">
          <mxGeometry width="50" height="50" relative="1" as="geometry">
            <mxPoint x="540" y="530" as="sourcePoint" />
            <mxPoint x="660" y="520" as="targetPoint" />
          </mxGeometry>
        </mxCell>
        <mxCell id="id077lcBNHBf9qb926Jy-33" value="" style="endArrow=classic;html=1;rounded=0;strokeColor=#86f005;" edge="1" parent="1">
          <mxGeometry width="50" height="50" relative="1" as="geometry">
            <mxPoint x="540" y="540" as="sourcePoint" />
            <mxPoint x="650" y="630" as="targetPoint" />
          </mxGeometry>
        </mxCell>
      </root>
    </mxGraphModel>
  </diagram>
</mxfile>
